<?xml version="1.0" encoding="utf-8"?>
<svg version="1.1" id="Layer_1"
xmlns="http://www.w3.org/2000/svg"
xmlns:xlink="http://www.w3.org/1999/xlink"
width="550px" height="400px"
xml:space="preserve">
<g id="PathID_1" transform="matrix(2.22311, 0, 0, 2.22311, 168.3, 163.35)" opacity="1">
<path style="fill:#000000;fill-opacity:1" d="M-20.35 -18.65L20.4 -18.65L20.4 18.7L-20.35 18.7L-20.35 -18.65" />
</g>
<g id="PathID_2" transform="matrix(2.22311, 0, 0, 2.22311, 168.3, 163.35)" opacity="1">
</g>
<g id="PathID_3" transform="matrix(1.43283, 0, 0, 1.43283, 150.1, 205.35)" opacity="1">
<path style="fill:#FFFFFF;fill-opacity:1" d="M38.05 -36.85L44.65 -36.85L44.65 0L39.1 0L39.1 -29.5L23.75 -11.2L8.4 -29.5L8.4 0L2.85 0L2.85 -36.85L9.4 -36.85L23.75 -19.8L38.05 -36.85" />
</g>
<g id="PathID_4" transform="matrix(1.43283, 0, 0, 1.43283, 150.1, 205.35)" opacity="1">
</g>
<g id="PathID_5" transform="matrix(1.43283, 0, 0, 1.43283, 217.75, 198.05)" opacity="1">
<path style="fill:#000000;fill-opacity:1" d="M26.15 -29.7Q27.55 -29.7 28.75 -29.2Q29.95 -28.65 30.85 -27.75Q31.8 -26.8 32.3 -25.6Q32.8 -24.4 32.8 -23.05L32.8 -12.05L8.1 -12.05L8.1 -6.65Q8.1 -6.2 8.45 -5.85Q8.8 -5.5 9.25 -5.5L32.8 -5.5L32.8 0L9.25 0Q7.85 0 6.65 -0.5Q5.45 -1 4.55 -1.95Q3.6 -2.85 3.1 -4.05Q2.6 -5.25 2.6 -6.65L2.6 -23.05Q2.6 -24.4 3.1 -25.6Q3.6 -26.8 4.55 -27.75Q5.45 -28.65 6.65 -29.2Q7.85 -29.7 9.25 -29.7L26.15 -29.7M27.3 -17.6L27.3 -23.05Q27.3 -23.5 26.95 -23.85Q26.6 -24.15 26.15 -24.15L9.25 -24.15Q8.8 -24.15 8.45 -23.85Q8.1 -23.5 8.1 -23.05L8.1 -17.6L27.3 -17.6" />
</g>
<g id="PathID_6" transform="matrix(1.43283, 0, 0, 1.43283, 217.75, 198.05)" opacity="1">
</g>
<g id="PathID_7" transform="matrix(1.43283, 0, 0, 1.43283, 268.5, 198.05)" opacity="1">
<path style="fill:#000000;fill-opacity:1" d="M2.65 -23.05L2.65 -39.4L8.2 -39.4L8.2 -6.65Q8.2 -6.2 8.5 -5.85Q8.85 -5.5 9.3 -5.5L14.85 -5.5L14.85 0L9.3 0Q7.95 0 6.75 -0.5Q5.55 -1 4.6 -1.95Q3.7 -2.85 3.15 -4.05Q2.65 -5.25 2.65 -6.65L2.65 -23.05" />
</g>
<g id="PathID_8" transform="matrix(1.43283, 0, 0, 1.43283, 268.5, 198.05)" opacity="1">
</g>
<g id="PathID_9" transform="matrix(1.43283, 0, 0, 1.43283, 290.6, 198.05)" opacity="1">
<path style="fill:#000000;fill-opacity:1" d="M2.65 -23.05L2.65 -39.4L8.2 -39.4L8.2 -6.65Q8.2 -6.2 8.5 -5.85Q8.85 -5.5 9.3 -5.5L14.85 -5.5L14.85 0L9.3 0Q7.95 0 6.75 -0.5Q5.55 -1 4.6 -1.95Q3.7 -2.85 3.15 -4.05Q2.65 -5.25 2.65 -6.65L2.65 -23.05" />
</g>
<g id="PathID_10" transform="matrix(1.43283, 0, 0, 1.43283, 290.6, 198.05)" opacity="1">
</g>
<g id="PathID_11" transform="matrix(1.43283, 0, 0, 1.43283, 312.75, 198.05)" opacity="1">
<path style="fill:#000000;fill-opacity:1" d="M26.15 -29.7Q27.55 -29.7 28.75 -29.2Q29.95 -28.65 30.85 -27.75Q31.8 -26.8 32.3 -25.6Q32.8 -24.4 32.8 -23.05L32.8 -6.65Q32.8 -5.25 32.3 -4.05Q31.8 -2.85 30.85 -1.95Q29.95 -1 28.75 -0.5Q27.55 0 26.15 0L9.25 0Q7.85 0 6.65 -0.5Q5.45 -1 4.55 -1.95Q3.6 -2.85 3.1 -4.05Q2.6 -5.25 2.6 -6.65L2.6 -23.05Q2.6 -24.4 3.1 -25.6Q3.6 -26.8 4.55 -27.75Q5.45 -28.65 6.65 -29.2Q7.85 -29.7 9.25 -29.7L26.15 -29.7M9.25 -24.15Q8.8 -24.15 8.45 -23.85Q8.1 -23.5 8.1 -23.05L8.1 -6.65Q8.1 -6.2 8.45 -5.85Q8.8 -5.5 9.25 -5.5L26.15 -5.5Q26.6 -5.5 26.95 -5.85Q27.3 -6.2 27.3 -6.65L27.3 -23.05Q27.3 -23.5 26.95 -23.85Q26.6 -24.15 26.15 -24.15L9.25 -24.15" />
</g>
<g id="PathID_12" transform="matrix(1.43283, 0, 0, 1.43283, 312.75, 198.05)" opacity="1">
</g>
<g id="PathID_13" transform="matrix(1.43283, 0, 0, 1.43283, 363.5, 198.05)" opacity="1">
<path style="fill:#000000;fill-opacity:1" d="M53.05 -29.7L41.85 0L37.35 0L27.4 -22.05L17.95 0L17.9 0L13.45 0L1.8 -29.7L7.65 -29.7L15.7 -9.95L24.25 -29.7L30.55 -29.7L39.6 -9.95L47.15 -29.7L53.05 -29.7" />
</g>
<g id="PathID_14" transform="matrix(1.43283, 0, 0, 1.43283, 363.5, 198.05)" opacity="1">
</g>
<g id="PathID_15" transform="matrix(2.22311, 0, 0, 2.22311, 140.85, 116.45)" opacity="1">
<path style="fill:#000000;fill-opacity:1" d="M-8 2.45L8.05 -2.45L8.05 2.45L-8 2.45" />
</g>
<g id="PathID_16" transform="matrix(2.22311, 0, 0, 2.22311, 140.85, 116.45)" opacity="1">
</g>
<g id="PathID_17" transform="matrix(2.22311, 0, 0, 2.22311, 168, 130.3)" opacity="1">
<path style="fill:#FFFFFF;fill-opacity:1" d="M18.3 2.05L15.6 2.05L15.6 -2.05L18.3 -2.05L18.3 2.05M-18.3 -2.05L-15.5 -2.05L-15.5 2.05L-18.3 2.05L-18.3 -2.05M-12.65 2.05L-12.65 -2.05L-9.95 -2.05L-9.95 2.05L-12.65 2.05M-4.35 2.05L-7.05 2.05L-7.05 -2.05L-4.35 -2.05L-4.35 2.05M1.25 -2.05L1.25 2.05L-1.45 2.05L-1.45 -2.05L1.25 -2.05M6.85 -2.05L6.85 2.05L4.15 2.05L4.15 -2.05L6.85 -2.05M12.5 -2.05L12.5 2.05L9.75 2.05L9.75 -2.05L12.5 -2.05" />
</g>
<g id="PathID_18" transform="matrix(2.22311, 0, 0, 2.22311, 168, 130.3)" opacity="1">
</g>
</svg>
